<svg width="24" height="24" viewBox="0 0 24 24" fill="none" xmlns="http://www.w3.org/2000/svg">
<path d="M17.1686 18.4829L17.7371 18.972H17.7371L17.1686 18.4829ZM14.3733 21.1328L14.8215 21.7341L14.8215 21.7341L14.3733 21.1328ZM13.1405 21.9162L12.8031 21.2464H12.8031L13.1405 21.9162ZM10.8595 21.9162L11.1969 21.2464L11.1969 21.2464L10.8595 21.9162ZM9.62674 21.1328L9.17849 21.7341L9.17849 21.7341L9.62674 21.1328ZM6.83144 18.4829L7.4 17.9938H7.4L6.83144 18.4829ZM12 1C6.76834 1 2.5 5.20102 2.5 10.4167H4C4 6.0446 7.58153 2.5 12 2.5V1ZM21.5 10.4167C21.5 5.20102 17.2317 1 12 1V2.5C16.4185 2.5 20 6.0446 20 10.4167H21.5ZM17.7371 18.972C19.6225 16.7804 21.5 13.6659 21.5 10.4167H20C20 13.1305 18.4001 15.9013 16.6 17.9938L17.7371 18.972ZM14.8215 21.7341C15.7426 21.0475 16.7721 20.0938 17.7371 18.972L16.6 17.9938C15.7 19.0399 14.75 19.9165 13.925 20.5315L14.8215 21.7341ZM13.4778 22.5861C13.9059 22.3705 14.3624 22.0764 14.8215 21.7341L13.925 20.5315C13.5125 20.839 13.1313 21.0811 12.8031 21.2464L13.4778 22.5861ZM12 23C12.562 23 13.0962 22.7783 13.4778 22.5861L12.8031 21.2464C12.4758 21.4112 12.2005 21.5 12 21.5V23ZM10.5222 22.5861C10.9038 22.7783 11.438 23 12 23V21.5C11.7995 21.5 11.5242 21.4112 11.1969 21.2464L10.5222 22.5861ZM9.17849 21.7341C9.63763 22.0764 10.0941 22.3705 10.5222 22.5861L11.1969 21.2464C10.8687 21.0811 10.4875 20.839 10.075 20.5315L9.17849 21.7341ZM6.26288 18.972C7.22791 20.0938 8.25743 21.0475 9.17849 21.7341L10.075 20.5315C9.25 19.9165 8.3 19.0399 7.4 17.9938L6.26288 18.972ZM2.5 10.4167C2.5 13.6659 4.37749 16.7804 6.26288 18.972L7.4 17.9938C5.59995 15.9013 4 13.1305 4 10.4167H2.5ZM8.25 10C8.25 12.0711 9.92893 13.75 12 13.75V12.25C10.7574 12.25 9.75 11.2426 9.75 10H8.25ZM12 6.25C9.92893 6.25 8.25 7.92893 8.25 10H9.75C9.75 8.75736 10.7574 7.75 12 7.75V6.25ZM15.75 10C15.75 7.92893 14.0711 6.25 12 6.25V7.75C13.2426 7.75 14.25 8.75736 14.25 10H15.75ZM12 13.75C14.0711 13.75 15.75 12.0711 15.75 10H14.25C14.25 11.2426 13.2426 12.25 12 12.25V13.75Z" fill="#0063A9"/>
</svg>
