<svg width="16" height="16" viewBox="0 0 16 16" fill="none" xmlns="http://www.w3.org/2000/svg">
<path d="M8 16C6.41775 16 4.87103 15.5308 3.55544 14.6518C2.23985 13.7727 1.21447 12.5233 0.608967 11.0615C0.0034663 9.59966 -0.15496 7.99113 0.153721 6.43928C0.462403 4.88743 1.22433 3.46197 2.34315 2.34315C3.46197 1.22433 4.88743 0.462403 6.43928 0.153721C7.99113 -0.15496 9.59966 0.0034663 11.0615 0.608967C12.5233 1.21447 13.7727 2.23985 14.6518 3.55544C15.5308 4.87103 16 6.41775 16 8C15.9977 10.121 15.1541 12.1545 13.6543 13.6543C12.1545 15.1541 10.121 15.9977 8 16ZM8 2.90909C7.80712 2.90909 7.62213 2.98572 7.48574 3.12211C7.34935 3.2585 7.27273 3.44348 7.27273 3.63637V8C7.27256 8.09557 7.29123 8.19024 7.32766 8.27859C7.3641 8.36694 7.4176 8.44725 7.48509 8.51491L10.5687 11.5985C10.6358 11.668 10.7161 11.7234 10.8048 11.7615C10.8935 11.7996 10.989 11.8197 11.0855 11.8205C11.1821 11.8214 11.2779 11.803 11.3672 11.7664C11.4566 11.7298 11.5378 11.6758 11.6061 11.6076C11.6744 11.5393 11.7284 11.4581 11.765 11.3687C11.8015 11.2793 11.8199 11.1835 11.8191 11.087C11.8183 10.9904 11.7982 10.895 11.7601 10.8063C11.722 10.7175 11.6666 10.6373 11.5971 10.5702L8.72727 7.70182V3.63637C8.72727 3.44348 8.65065 3.2585 8.51426 3.12211C8.37787 2.98572 8.19289 2.90909 8 2.90909Z" fill="#B7C5CF"/>
</svg>
