<svg width="24" height="24" viewBox="0 0 24 24" fill="none" xmlns="http://www.w3.org/2000/svg">
<path d="M18.4682 15.306C18.7664 15.3868 19.0335 15.5421 19.2447 15.7533C19.549 16.0576 19.7416 16.4801 19.7416 16.946C19.7416 17.412 19.549 17.8344 19.2447 18.1388C18.9403 18.4494 18.5179 18.6357 18.0519 18.6357H14.3619C14.2563 19.1141 14.014 19.5427 13.6785 19.8782C13.2126 20.3441 12.5727 20.6298 11.8708 20.6298C11.1688 20.6298 10.529 20.344 10.0631 19.8782C9.72758 19.5427 9.4853 19.1141 9.37967 18.6357H5.68969C5.22373 18.6357 4.80131 18.4494 4.49694 18.1388C4.19257 17.8344 4 17.412 4 16.946C4 16.4801 4.19258 16.0576 4.49694 15.7533C4.70809 15.5421 4.97531 15.3868 5.27341 15.306C5.46599 14.6849 5.62745 13.9518 5.74551 13.2126C5.90698 12.2311 5.99404 11.2434 5.99404 10.5042C5.99404 8.88288 6.65258 7.41677 7.72098 6.34828C8.18694 5.88232 8.73356 5.49103 9.33615 5.19907C9.41695 4.64001 9.67779 4.13681 10.0629 3.75163C10.5289 3.28567 11.1687 3 11.8707 3C12.5726 3 13.2125 3.2858 13.6784 3.75163C14.0636 4.13678 14.3245 4.64001 14.4052 5.19907C15.0078 5.49101 15.5544 5.88244 16.0204 6.34828C17.0888 7.41671 17.7473 8.88282 17.7473 10.5042C17.7473 11.2434 17.8343 12.2311 17.9959 13.2126C18.1139 13.9518 18.2754 14.6849 18.468 15.306H18.4682ZM9.49808 10.2182C9.49808 10.5289 9.2434 10.7836 8.93276 10.7836C8.62212 10.7836 8.36744 10.5289 8.36744 10.2182C8.36744 9.33612 8.73392 8.52855 9.31164 7.94466C9.89553 7.36077 10.7031 7.00046 11.5915 7.00046C11.9021 7.00046 12.1505 7.24899 12.1505 7.56577C12.1505 7.87641 11.902 8.12483 11.5915 8.12483C11.0137 8.12483 10.492 8.36094 10.1131 8.73983C9.73419 9.11871 9.49808 9.64679 9.49808 10.2182ZM10.697 4.74545C11.0759 4.66465 11.4673 4.62124 11.871 4.62124C12.2747 4.62124 12.6662 4.66477 13.0451 4.74545C12.9954 4.67092 12.9457 4.60255 12.8836 4.54045C12.6226 4.28576 12.2686 4.12429 11.871 4.12429C11.4734 4.12429 11.1194 4.28575 10.8584 4.54045C10.7963 4.60255 10.7467 4.67092 10.697 4.74545H10.697ZM13.188 18.6355H10.5541C10.6286 18.8033 10.7342 18.9586 10.8584 19.0891C11.1194 19.3437 11.4734 19.5052 11.871 19.5052C12.2686 19.5052 12.6226 19.3438 12.8836 19.0891C13.0078 18.9586 13.1134 18.8033 13.188 18.6355ZM18.4495 16.5483C18.3502 16.4426 18.2073 16.3805 18.0519 16.3805C17.8221 16.3805 17.6047 16.2376 17.5239 16.0078C17.2505 15.2499 17.0331 14.3181 16.8841 13.3987C16.7102 12.3427 16.6231 11.2929 16.6231 10.5039C16.6231 9.19307 16.0889 8.00661 15.2254 7.14949C14.3618 6.28594 13.1754 5.75176 11.871 5.75176C10.5666 5.75176 9.37999 6.28597 8.5166 7.14949C7.65305 8.00674 7.11887 9.19322 7.11887 10.5039C7.11887 11.2928 7.03192 12.3426 6.85791 13.3987C6.70886 14.2995 6.50387 15.2065 6.23678 15.9581C6.17467 16.2004 5.95725 16.3805 5.69016 16.3805C5.53484 16.3805 5.39821 16.4489 5.29257 16.5483C5.19321 16.6476 5.12484 16.7905 5.12484 16.9458C5.12484 17.1012 5.19321 17.2441 5.29257 17.3434C5.39821 17.4428 5.53484 17.5112 5.69016 17.5112H18.0521C18.2074 17.5112 18.3441 17.4428 18.4497 17.3434C18.5491 17.2441 18.6174 17.1012 18.6174 16.9458C18.6174 16.7905 18.5491 16.6476 18.4497 16.5483H18.4495Z" fill="white"/>
</svg>
